<svg xmlns="http://www.w3.org/2000/svg" xmlns:xlink="http://www.w3.org/1999/xlink" version="1.1" width="473.3330078125" height="500" enable-background="new 0 0 473.333 500" xml:space="preserve"><rect id="backgroundrect" width="100%" height="100%" x="0" y="0" fill="none" stroke="none"/>

<g class="currentLayer"><title>Layer 1</title><g id="svg_1" class="" stroke-width="60" stroke="none">
	<g id="svg_2" stroke-width="60" stroke="none">
		<g id="svg_3" stroke-width="60" stroke="none">
			<path fill="#5D1243" d="M395.78321861734105,121.00029911392087 c15.47888752405275,28.646683434848015 24.365205221600352,62.046808719321845 24.365205221600352,97.73263157404124 c0,106.26237567212591 -78.72973163818618,192.39069650492027 -175.8364649735091,192.39069650492027 s-175.8364649735091,-86.12832083279436 -175.8364649735091,-192.39069650492027 c0,-35.685822854719426 8.887739735905347,-69.08594813919322 24.35667299145388,-97.73263157404124 c-24.72071481103657,35.21903642104095 -39.447344043842286,79.27434003161541 -39.447344043842286,127.10750184542768 c0,115.38027067664547 85.48441383747424,208.90715648324365 190.92713602589757,208.90715648324365 c105.43845607335005,0 190.92286991082432,-93.5268858065982 190.92286991082432,-208.90715648324365 C435.23482877625656,200.27619510031516 420.50677750509305,156.2193355349618 395.78321861734105,121.00029911392087 z" id="svg_4" stroke-width="60" stroke="none"/>
		</g>
		<g id="svg_5" stroke-width="60" stroke="none">
			<path fill="#006B79" d="M267.52389097890153,42.26587539059358 c25.08760070733474,7.137164570943883 48.82568701316963,21.459728310978424 68.48252323227675,42.97235908444041 c58.89940673943416,64.45853862666063 58.895140624360934,168.9222305743455 0.004266115073234589,233.36832156277467 c-58.895140624360934,64.43519930497669 -154.379328193497,64.44609098842918 -213.27873493293112,0 c-19.665368449253606,-21.51263077346199 -32.74954337886402,-47.486183898111264 -39.28238759434389,-74.93633810796345 c4.860527106771917,36.538486073572095 20.091979956577063,71.74040699204484 45.793901234457586,99.85495389249941 c63.388781834834674,69.36757595417924 166.1594939490554,69.35824022550568 229.54543170717454,0 c63.388781834834674,-69.34890449683212 63.388781834834674,-181.79931232475568 -0.002844076715489715,-251.15755255026133 C333.0898135394436,64.24218068817618 300.9133516187508,47.579460960633526 267.52389097890153,42.26587539059358 z" id="svg_6" stroke-width="60" stroke="none"/>
		</g>
		<g id="svg_7" stroke-width="60" stroke="none">
			<g id="svg_8" stroke-width="60" stroke="none">
				<path fill="#B72C3E" d="M303.12177718832856,328.98010654892323 c-16.205549124860372,7.8062251258830315 -34.10474593379487,12.176902099892486 -52.95102028898743,12.176902099892486 c-72.66331600404662,0 -131.56983293526952,-64.45075885276597 -131.56983293526952,-143.95693614644168 c0,-79.49839751978108 58.90651693122289,-143.9476004177681 131.56983293526952,-143.9476004177681 c18.84627435519257,0 36.746893202484806,4.362897200114814 52.95102028898743,12.170678280776777 C281.4925737670292,50.76294443832073 256.0082243578837,42.26587539059358 228.69228954396277,42.26587539059358 c-78.21353171432479,0 -141.60373558751724,69.37224381851604 -141.60373558751724,154.93419711178055 c0,85.57128902193804 63.39020387319241,154.93886497611726 141.60373558751724,154.93886497611726 C256.0082243578837,352.13893747849136 281.4925737670292,343.64031247598524 303.12177718832856,328.98010654892323 z" id="svg_9" stroke-width="60" stroke="none"/>
			</g>
		</g>
		<g id="svg_10" stroke-width="60" stroke="none">
			<path fill="#5D1243" d="M185.97141320059185,95.7160339563368 c12.98036612949504,-8.341473569834351 28.11227629425805,-13.130702379375503 44.2694761149551,-13.130702379375503 c48.4004975442039,0.004667864336784764 87.626003604238,42.924124486293636 87.626003604238,95.88571325145341 c0,52.941361353033706 -39.22977217510733,95.87326561322199 -87.62458156588025,95.87326561322199 c-16.15862185905479,0 -31.286265908744564,-4.789228809541154 -44.27943038345931,-13.126034515038716 c15.720634044869378,12.831959061821278 35.19402731582743,20.43902197600149 56.315563043411764,20.43591006644364 c52.08642096747856,0.0015559547789282598 94.30816184728107,-46.19785334115868 94.30816184728107,-103.19403284807939 c0.002844076715489715,-56.9837318686893 -42.2217408798025,-103.18936498374262 -94.3124279623543,-103.18936498374262 C221.1569082862728,75.27234411599856 201.67924890024153,82.88251893973657 185.97141320059185,95.7160339563368 z" id="svg_11" stroke-width="60" stroke="none"/>
		</g>
		<g id="svg_12" stroke-width="60" stroke="none">
			<path fill="#006B79" d="M264.76798064159203,246.08505974674182 c-8.314658277734171,4.003471646182388 -17.496759953692703,6.244046527839068 -27.17088690143095,6.244046527839068 c-37.28584574007011,0 -67.50558288050603,-33.07026287134103 -67.50558288050603,-73.87206503917653 c0,-40.78313071048836 30.219737140435925,-73.85806144616619 67.50558288050603,-73.85806144616619 c9.672704909380506,0 18.854806585339038,2.2405748816566806 27.17088690143095,6.248714392175853 c-11.093321228767616,-7.523041356118088 -24.174652081662543,-11.87971473711719 -38.18884009723809,-11.87971473711719 c-40.132766532275305,0 -72.66047192733113,35.59402152276265 -72.66047192733113,79.48906179110753 c0,43.909043861355215 32.52912743341357,79.50928920323359 72.66047192733113,79.50928920323359 C240.59332855992943,257.96477448385906 253.67465941282438,253.60343323852317 264.76798064159203,246.08505974674182 z" id="svg_13" stroke-width="60" stroke="none"/>
		</g>
		<path fill="#FAA52E" d="M319.3927400776452,92.77683537894136 c22.25632233706473,21.525078411693407 36.317437618445865,52.98803999640156 36.317437618445865,88.04992498477074 c0,64.88487023608697 -48.07485076028032,117.48236558297751 -107.37527231659855,117.48236558297751 c-59.29757747960273,0 -107.37100620152532,-52.59749534689057 -107.37100620152532,-117.48236558297751 c0,-35.06966476226384 14.054005089592408,-66.52484657307733 36.31459354173037,-88.04992498477074 c-29.746198367306885,23.924360680800774 -49.07454372577495,62.46691650963245 -49.07454372577495,105.96363235457169 c0,72.59618212045538 53.784334766625925,131.45328354297428 120.13095638556989,131.45328354297428 c66.34519958058623,0 120.13237842392763,-58.85865737729785 120.13237842392763,-131.45328354297428 C368.4672838034202,155.24375188857377 349.1432045600253,116.7011960597421 319.3927400776452,92.77683537894136 z" id="svg_14" stroke-width="60" stroke="none"/>
		<path fill="#FAA52E" d="M236.80928448997042,208.49630419739316 c-12.599259849619418,0 -22.810917296585224,-11.174867222262693 -22.810917296585224,-24.959070608788057 c0,-12.872413886073414 8.901960119482796,-23.45601829234337 20.336570554109176,-24.80503108567417 c-0.1820209097913413,-0.017115502568210806 -0.3626197812249386,-0.045122688588919435 -0.5460627293740246,-0.057570326820345484 c-0.3939046250953265,-0.026451231241780355 -0.7906533269061393,-0.05601437204141726 -1.1859799903592096,-0.06535010071498681 c-0.18486498650683175,-0.004667864336784764 -0.3654638579404275,-0.031119095578565143 -0.5531729211627481,-0.031119095578565143 c-0.43087762239669236,0 -0.851800976289172,0.05134650770463246 -1.281256560328115,0.07157391983069995 c-0.39674870181081556,0.01867145734713906 -0.7920753652638833,0.026451231241780355 -1.1930901821479365,0.06535010071498681 c-0.6825784117175316,0.06690605549391504 -1.3537805165731025,0.17893479957674943 -2.023560583070929,0.2987433175542253 c-0.31284843870386936,0.057570326820345484 -0.6271189157654836,0.08868942239891052 -0.9399673544693524,0.15715143267175355 c-0.9570318147622896,0.2116098499342424 -1.8969991692316373,0.4714542980152603 -2.8156359483348137,0.7873131181376924 c-0.33417901407004147,0.1135846988617626 -0.6555596829203791,0.2645123124178032 -0.9868946202749306,0.3921006042899206 c-0.5915679568218595,0.23339321683923805 -1.1817138752859777,0.465230478899548 -1.7547953334571529,0.7375225652119919 c-0.4266115073234584,0.20227412126067268 -0.8404246694272115,0.4356673380999105 -1.2599259849619449,0.6628367358234366 c-0.462162466267079,0.2520646741863768 -0.9200588174609243,0.5103531674884672 -1.366578861792806,0.7873131181376924 c-0.4266115073234584,0.2676242219756599 -0.8489568995736798,0.5492520369616738 -1.2684582151084114,0.8433274901791121 c-0.4337216991121833,0.30807904622779503 -0.85464505300466,0.6286057306870141 -1.2727243301816475,0.9584681438198036 c-0.3867944333066012,0.3111909557856508 -0.7764329433286915,0.6146021376766617 -1.153273108131078,0.9460205055883782 c-0.5289982690810877,0.4667864336784758 -1.0281337326495308,0.9678038724933729 -1.52300308114474,1.4766010852029101 c-0.21330575366172871,0.22094557860781222 -0.44936412104737666,0.40766015207920275 -0.6598257979936152,0.6379414593605842 c-1.2684582151084114,1.3879116628039998 -2.3748040574339093,2.8862961149119055 -3.3446342174159,4.4531425772926525 c0,0 -0.01279834521970378,0.017115502568210806 -0.01706446029293836,0.026451231241780355 c-0.4379878141854162,0.7110713339702116 -0.8361585543539792,1.4454819896243476 -1.2144207575141082,2.187672419173121 c-0.05972561102528418,0.11514065364069054 -0.125139375481548,0.22405748816566912 -0.18344294814908663,0.34231005136421516 c-0.3370230907855312,0.6815081931705761 -0.6342291075542078,1.38013188890936 -0.9200588174609243,2.0834234489849273 c-0.07963414803371222,0.200718166481745 -0.17348867964487263,0.3921006042899206 -0.2531228276785848,0.6005985446663066 c-0.2488567126053503,0.6519450523709389 -0.4578963511938451,1.3194496525311592 -0.6640919130668497,1.990066162249232 c-0.08390026310694662,0.2691801767545879 -0.1805988714335967,0.5352484439513199 -0.2602330194673082,0.8090964850426915 c-0.1805988714335967,0.6472771880341536 -0.32138066885033856,1.3023341499629484 -0.46074042790933445,1.960503021449596 c-0.06541376445626364,0.3111909557856508 -0.1493140275632099,0.6114902281188047 -0.207617600230749,0.9242371386833804 c-0.1322495672702722,0.7204070626437822 -0.2204159454504535,1.447037944403275 -0.3014721318419098,2.1721128713838365 c-0.031284843870386866,0.2582884933020904 -0.07963414803371222,0.5103531674884672 -0.10380880011537452,0.770197615569486 c-0.08958841653792594,1.0004789228508661 -0.1393597590589967,2.007181664817443 -0.1393597590589967,3.0138844067840207 v0.007779773894641278 c0,0.09958110585140838 0.01279834521970378,0.19293839258710366 0.01279834521970378,0.28940758888065515 c0.011376306861958885,0.8837823144312462 0.04408318909009068,1.7706765384203487 0.12087326040831321,2.649790988514808 c0.05545949595204938,0.6068223637820185 0.15215810427869958,1.1996411345536813 0.24032448245888124,1.7971277696621293 c0.05119338087881488,0.36098150871135504 0.08532230146469172,0.7250749269805656 0.15215810427869958,1.0860564356919198 c0.12371733712380269,0.706403469633426 0.2929399016954408,1.3941354819197131 0.462162466267079,2.0834234489849273 c0.06114764938302914,0.24584085507066453 0.10807491518860951,0.4963495744781133 0.17633275636036227,0.742190429548776 c0.20335148515751492,0.7375225652119919 0.4408318909009064,1.454817718297916 0.6911106418640016,2.1674450070470526 c0.06967987952949818,0.19449434736603155 0.125139375481548,0.3905446495109913 0.19624129336879056,0.583483042098097 c0.2858297099067164,0.770197615569486 0.6114764938302896,1.515499954676114 0.9527656996890559,2.2499106103302493 c0.06114764938302914,0.13070020142997338 0.11234103026184412,0.2676242219756599 0.17633275636036227,0.3998803781845616 c0.4152352004614983,0.8573310831894678 0.8645993215088764,1.695990709031793 1.3523584782153586,2.5035312392955564 c0.001422038357744862,0.0031119095578565196 0.004266115073234589,0.007779773894641278 0.004266115073234589,0.007779773894641278 c4.931629024659159,8.192101911057236 13.39844540667203,13.60526858694862 23.029911203677933,13.60526858694862 c15.22718673473191,0 27.569057641599514,-13.504131526318282 27.569057641599514,-30.162183389524138 c0,-0.9180133195676679 -0.039817074016856094,-1.8235790009039108 -0.11376306861958872,-2.721364908345511 C258.36454191666695,198.64244258244057 248.6406436264076,208.49630419739316 236.80928448997042,208.49630419739316 z" id="svg_15" stroke-width="60" stroke="none"/>
		<path fill="#B72C3E" d="M279.28699227416695,137.01107378909256 c-19.725094060278888,-21.58264873851376 -51.71242487939167,-21.579536828955902 -71.43751893967055,0.004667864336784764 c-10.370925743033231,11.347578202723726 -15.275536038895238,26.39521686973883 -14.743693693098663,41.24991714416684 c-0.01990853700842806,0.5850389968770233 -0.0412391123746009,1.1716339485329732 -0.0412391123746009,1.7613408097467804 c0,0.9444645508094485 0.027018728797152385,1.8811493277242557 0.07536803296047753,2.8131662403022766 c0.7636345981089901,-25.1815721421748 19.61701914509028,-45.351413941421704 42.817574951697594,-45.351413941421704 c23.688314963313804,0 42.891520946300325,21.014725244204946 42.891520946300325,46.9322639968128 c0,25.383846263435476 -18.432461193088816,46.012694722466215 -41.4481520131893,46.85291030308747 c0.851800976289172,0.05134650770463246 1.7107121443670614,0.0793536937253409 2.5710453508026982,0.0793536937253409 c0.5460627293740246,0 1.085015266959325,-0.02489527646285214 1.623967804544625,-0.043566733809991126 c13.576200201390137,0.5788151777613101 27.32162296735191,-4.789228809541154 37.688282595311904,-16.133695102707023 C299.00782021937266,193.59336932481835 299.0120863344458,158.59683443716415 279.28699227416695,137.01107378909256 z" id="svg_16" stroke-width="60" stroke="none"/>
	</g>
	<g id="svg_17" stroke-width="60" stroke="none">
		<g id="svg_18" stroke-width="60" stroke="none">
			<path fill="#006B79" d="M0.7366967207469628,505.767688530751 c16.70895070350205,0 26.826753618856696,13.306525269394395 26.826753618856696,34.93896456083386 c0,21.526634366472344 -10.214501523681296,34.935852651276 -26.826753618856696,34.935852651276 H-19.776206589722563 c-0.5588610745937291,0 -0.8361585543539792,-0.3065230914488662 -0.8361585543539792,-0.9133454552308836 v-68.0481263016481 c0,-0.6099342733398763 0.2772974797602478,-0.9149014100098122 0.8361585543539792,-0.9149014100098122 H0.7366967207469628 zM-14.483379822196202,569.5493868285779 h15.221498581300933 c12.993164474714746,0 20.60533580372296,-10.764095160625635 20.60533580372296,-28.842733736992972 c0,-18.1813315917766 -7.612171329008211,-28.84584564655083 -20.60533580372296,-28.84584564655083 H-14.483379822196202 V569.5493868285779 z" id="svg_19" stroke-width="60" stroke="none"/>
			<path fill="#006B79" d="M48.07777568843095,574.7291602876301 c0,0.6068223637820185 -0.2815635948334828,0.9133454552308836 -0.8361585543539792,0.9133454552308836 h-4.362813681561216 c-0.5545949595204955,0 -0.8318924392807406,-0.3065230914488662 -0.8318924392807406,-0.9133454552308836 v-41.743154809087095 h-4.270381188307801 c-0.5545949595204955,0 -0.8361585543539792,-0.3065230914488662 -0.8361585543539792,-0.910233545673027 v-4.166846897969857 c0,-0.6099342733398763 0.2815635948334828,-0.9149014100098122 0.8361585543539792,-0.9149014100098122 h9.466509347507502 c0.5545949595204955,0 0.8361585543539792,0.3065230914488662 0.8361585543539792,0.9149014100098122 V574.7291602876301 zM48.07777568843095,507.79976547203137 c0,2.842729381101912 -1.488874160558864,4.465590215524078 -3.9888175934743195,4.465590215524078 c-2.5098977014196704,0 -4.085516201800971,-1.6228608344221649 -4.085516201800971,-4.465590215524078 c0,-2.844285335880841 1.5756185003813001,-4.470258079860864 4.085516201800971,-4.470258079860864 C46.58890152787208,503.3295073921705 48.07777568843095,504.9554801361505 48.07777568843095,507.79976547203137 z" id="svg_20" stroke-width="60" stroke="none"/>
			<path fill="#006B79" d="M66.73207486532797,534.0020439491832 c0.1891311015800661,0.9133454552308836 0.7437260611005596,1.0160384706401502 1.298321020621053,0.10113706063033658 c3.4384887490270613,-5.279354564903554 8.078599910348524,-8.122083946005466 14.203319117155615,-8.122083946005466 c11.883974555673756,0 18.93728481008824,9.646919629355152 18.93728481008824,25.288933021920847 c0,15.73848258885925 -7.42730634250138,25.3854022182144 -20.046474729129226,25.3854022182144 c-3.993083708547554,0 -7.057576369487717,-0.6068223637820185 -10.584231496694958,-2.4350692290227127 l-2.7871951811799143,-1.4205867131614913 v23.35799314127089 c0,0.6099342733398763 -0.2772974797602478,0.9149014100098122 -0.8318924392807406,0.9149014100098122 h-4.362813681561216 c-0.5588610745937291,0 -0.8361585543539792,-0.3065230914488662 -0.8361585543539792,-0.9149014100098122 v-68.25040042290877 c0,-0.6099342733398763 0.2772974797602478,-0.9149014100098122 0.8361585543539792,-0.9149014100098122 h2.875361559360098 c0.5588610745937291,0 0.8361585543539792,0.3065230914488662 0.9285910476073916,0.9149014100098122 L66.73207486532797,534.0020439491832 zM71.47030667333382,568.4337672520862 c2.7829290661066817,1.4205867131614913 5.6625567405400155,2.1316580471317033 9.466509347507502,2.1316580471317033 c8.911914387987009,0 14.203319117155615,-7.208738490774585 14.203319117155615,-19.293839258710303 c0,-11.887494511011832 -5.015529287766105,-19.195814107637826 -13.556291664381707,-19.195814107637826 c-9.18494575267402,0 -13.921755522322133,8.733574174124268 -13.921755522322133,20.30987772935045 v14.016040648585674 L71.47030667333382,568.4337672520862 z" id="svg_21" stroke-width="60" stroke="none"/>
			<path fill="#006B79" d="M118.25536864313958,566.9058196591789 c0,2.237462972098824 0.8318924392807406,3.6596056400392447 2.4089329780197857,3.6596056400392447 c0.2772974797602478,0 0.5631271896669634,0 0.8361585543539792,-0.10113706063033658 c0.462162466267079,-0.20538603081853005 0.8361585543539792,0 1.021023540860805,0.5056853031516826 l1.581306653812279,3.9630168219302533 c0.18486498650683175,0.5087972127095391 0,1.0144825158612192 -0.46642858134031473,1.2214245014586764 c-0.9285910476073916,0.30029927233315357 -1.9510366268259416,0.5041293483727545 -2.972060167686748,0.5041293483727545 c-5.288560652453118,0 -8.445485806646698,-3.5553566698510517 -8.445485806646698,-9.751168599543345 v-62.15261364428895 c0,-0.6099342733398763 0.2772974797602478,-0.9133454552308836 0.8318924392807406,-0.9133454552308836 h4.362813681561216 c0.5588610745937291,0 0.8404246694272115,0.3034111818910099 0.8404246694272115,0.9133454552308836 V566.9058196591789 z" id="svg_22" stroke-width="60" stroke="none"/>
			<path fill="#006B79" d="M171.6273122860195,551.2715860405077 c0,15.635789573449983 -7.704603822261626,25.3854022182144 -20.235605830709293,25.3854022182144 c-12.531002008447665,0 -20.235605830709293,-9.751168599543345 -20.235605830709293,-25.3854022182144 c0,-15.539320377156432 7.704603822261626,-25.288933021920847 20.235605830709293,-25.288933021920847 C163.92128642540013,525.981097063808 171.6273122860195,535.7322656633513 171.6273122860195,551.2715860405077 zM137.19123141487006,551.2715860405077 c0,12.085100767935717 5.288560652453118,19.293839258710303 14.199053002082382,19.293839258710303 c8.911914387987009,0 14.295751610409031,-7.208738490774585 14.295751610409031,-19.293839258710303 c0,-11.988631571642168 -5.385259260779768,-19.195814107637826 -14.295751610409031,-19.195814107637826 C142.4797920673232,532.0757719328699 137.19123141487006,539.2829544688656 137.19123141487006,551.2715860405077 z" id="svg_23" stroke-width="60" stroke="none"/>
			<path fill="#006B79" d="M187.68496942167442,533.9009068885526 c0.2815635948334828,1.0144825158612192 0.8361585543539792,1.0144825158612192 1.487452122201119,0.20227412126067268 c3.5266551272072415,-5.383603535091746 7.612171329008211,-8.122083946005466 14.014188015575549,-8.122083946005466 c6.5868816730741715,0 10.672397874875138,4.1621790336330715 12.715866994954498,9.136566461866686 c0.6512935678471442,1.1156195764915564 1.3950196289477033,0.9180133195676679 2.0477352351525924,0.10269301540926477 c3.8921189851476683,-6.605028036550422 8.721361248049197,-9.23925947727595 14.938512948109707,-9.23925947727595 c9.563207955834152,0 15.221498581300933,7.512149672665594 15.221498581300933,19.70149941078951 v29.04656381303257 c0,0.6068223637820185 -0.27303136468701317,0.9133454552308836 -0.8318924392807406,0.9133454552308836 h-4.362813681561216 c-0.5545949595204955,0 -0.8318924392807406,-0.3065230914488662 -0.8318924392807406,-0.9133454552308836 v-28.536210645544106 c0,-8.840935053870318 -3.4384887490270613,-14.117177709216016 -9.748072942340984,-14.117177709216016 c-9.74380682726775,0 -13.833589144141953,8.529744098084668 -13.833589144141953,20.40945883520186 v22.245485474337194 c0,0.6068223637820185 -0.27303136468701317,0.9133454552308836 -0.8318924392807406,0.9133454552308836 h-4.362813681561216 c-0.5588610745937291,0 -0.8318924392807406,-0.3065230914488662 -0.8318924392807406,-0.9133454552308836 v-28.6404596157323 c0,-8.736686083682125 -3.627619850607127,-14.01448469380675 -9.844771550667634,-14.01448469380675 c-9.74380682726775,0 -13.829323029068718,8.529744098084668 -13.829323029068718,20.40945883520186 v22.245485474337194 c0,0.6068223637820185 -0.2772974797602478,0.9133454552308836 -0.8318924392807406,0.9133454552308836 h-4.362813681561216 c-0.5588610745937291,0 -0.8361585543539792,-0.3065230914488662 -0.8361585543539792,-0.9133454552308836 v-46.82179120750891 c0,-0.6099342733398763 0.2772974797602478,-0.9149014100098122 0.8361585543539792,-0.9149014100098122 h2.875361559360098 c0.5588610745937291,0 0.8361585543539792,0.3065230914488662 0.9285910476073916,0.9149014100098122 L187.68496942167442,533.9009068885526 z" id="svg_24" stroke-width="60" stroke="none"/>
			<path fill="#006B79" d="M266.3108922597452,527.5043767923786 c2.690496572853266,-0.9149014100098122 6.0322867135536775,-1.521723773791829 9.92867181377458,-1.521723773791829 c11.327957557795518,0 18.377001697136766,7.411012612035255 18.377001697136766,19.70149941078951 v29.04656381303257 c0,0.6068223637820185 -0.2772974797602478,0.9133454552308836 -0.8318924392807406,0.9133454552308836 h-2.875361559360098 c-0.5631271896669634,0 -0.8404246694272115,-0.3065230914488662 -0.9328571626806297,-0.9133454552308836 l-0.2772974797602478,-4.571395140491199 c-0.2772974797602478,-1.3194496525311592 -0.9285910476073916,-1.2167566371218927 -1.8586041335725279,-0.10113706063033658 c-3.152659039120345,4.369121019230525 -7.889468808768458,6.600360172213636 -14.753647961602875,6.600360172213636 c-9.37834296932732,0 -14.850346569929524,-5.58432170157349 -14.850346569929524,-14.622863012367695 c0,-8.837823144312459 5.6582906254667815,-14.826693088407296 16.334954615415153,-14.929386103816562 h14.014188015575549 v-1.3194496525311592 c0,-8.630881158715 -4.455246174814633,-13.606824541727546 -12.43856951519425,-13.606824541727546 c-3.249357647446995,0 -6.124719206807093,0.3998803781845616 -8.445485806646698,1.2167566371218927 l-3.249357647446995,1.0144825158612192 c-0.5588610745937291,0.20694198559745747 -0.9243249325341591,0 -1.113456034114222,-0.6068223637820185 l-1.021023540860805,-3.9630168219302533 c-0.18486498650683175,-0.6099342733398763 0,-1.0144825158612192 0.5588610745937291,-1.2214245014586764 L266.3108922597452,527.5043767923786 zM274.57151307988505,552.7933098142996 c-7.057576369487717,0 -10.306934016934711,3.5553566698510517 -10.306934016934711,8.834711234754607 c0,5.685458762203825 3.346056255773646,9.038541310794205 9.281644361000673,9.038541310794205 c9.563207955834152,0 15.03947767150959,-5.990425898873763 15.03947767150959,-16.55535884779658 v-1.3178936977522278 H274.57151307988505 z" id="svg_25" stroke-width="60" stroke="none"/>
			<path fill="#006B79" d="M344.2784113381802,574.7291602876301 c0,0.6068223637820185 -0.27303136468701317,0.9133454552308836 -0.8318924392807406,0.9133454552308836 h-2.8796276744333333 c-0.5588610745937291,0 -0.8318924392807406,-0.3065230914488662 -0.9285910476073916,-0.9133454552308836 l-0.36972997301366334,-6.094674869061955 c-0.0924324932534161,-0.9149014100098122 -0.6512935678471442,-1.1171755312704854 -1.3040091740520308,-0.10424897018819325 c-3.3375240256271757,5.07708044364288 -8.16250017345547,8.125195855563323 -14.199053002082382,8.125195855563323 c-11.785853908989363,0 -18.933018695015004,-9.751168599543345 -18.933018695015004,-25.3854022182144 c0,-15.746262362753887 7.515472720681561,-25.194019780406222 20.046474729129226,-25.288933021920847 c3.993083708547554,0 7.057576369487717,0.6068223637820185 10.584231496694958,2.4335132742437837 l2.875361559360098,1.4236986227193502 v-25.08510294588125 c0,-0.6099342733398763 0.2772974797602478,-0.9133454552308836 0.8361585543539792,-0.9133454552308836 h4.270381188307801 c0.5588610745937291,0 0.8318924392807406,0.3034111818910099 0.8318924392807406,0.9133454552308836 V574.7291602876301 zM334.5346045109124,534.3054551310742 c-2.7871951811799143,-1.521723773791829 -5.6625567405400155,-2.2312391529831115 -9.470775462580736,-2.2312391529831115 c-8.911914387987009,0.10113706063033658 -14.291485495335799,7.207182535995657 -14.199053002082382,19.195814107637826 c0.0924324932534161,11.983963707305382 5.1079617810195215,19.293839258710303 13.552025549308471,19.293839258710303 c9.281644361000673,0 13.921755522322133,-8.834711234754607 13.921755522322133,-20.30987772935045 v-14.022264467701389 L334.5346045109124,534.3054551310742 z" id="svg_26" stroke-width="60" stroke="none"/>
			<path fill="#006B79" d="M395.80028307763405,551.2715860405077 c0,15.635789573449983 -7.704603822261626,25.3854022182144 -20.23987194578253,25.3854022182144 c-12.52673589337443,0 -20.235605830709293,-9.751168599543345 -20.235605830709293,-25.3854022182144 c0,-15.539320377156432 7.708869937334863,-25.288933021920847 20.235605830709293,-25.288933021920847 C388.09567925537243,525.981097063808 395.80028307763405,535.7322656633513 395.80028307763405,551.2715860405077 zM361.3613581297691,551.2715860405077 c0,12.085100767935717 5.2928267675263525,19.293839258710303 14.199053002082382,19.293839258710303 c8.916180503060243,0 14.295751610409031,-7.208738490774585 14.295751610409031,-19.293839258710303 c0,-11.988631571642168 -5.380993145706532,-19.195814107637826 -14.295751610409031,-19.195814107637826 C366.6527628589377,532.0757719328699 361.3613581297691,539.2829544688656 361.3613581297691,551.2715860405077 z" id="svg_27" stroke-width="60" stroke="none"/>
			<path fill="#006B79" d="M453.90619241344655,575.1368204397091 c-3.249357647446995,1.1156195764915564 -6.498715294893989,1.5201678190129 -10.025370422101231,1.5201678190129 c-12.808299488207911,0 -20.420470817216128,-9.751168599543345 -20.420470817216128,-25.3854022182144 c0,-15.539320377156432 7.704603822261626,-25.288933021920847 20.328038323962705,-25.288933021920847 c10.491799003441544,0 16.801383196755467,5.581209792015634 16.801383196755467,15.02741125488904 c0,7.109157384923176 -4.085516201800971,11.27600428289303 -12.442835630267485,12.797728056684857 l-18.095438102303284,3.2519454879600422 c1.2058885273676374,8.529744098084668 6.217151700060507,13.50568748109721 13.829323029068718,13.50568748109721 c3.156925154193579,0 6.0322867135536775,-0.40766015207920275 8.634616908226763,-1.3194496525311592 l2.7829290661066817,-0.9149014100098122 c0.5588610745937291,-0.09802515107248025 0.9285910476073916,0.10424897018819325 1.113456034114222,0.7157391983069955 l1.113456034114222,4.056374108665949 c0.09669860832665068,0.6114902281188047 -0.0924324932534161,1.0160384706401502 -0.6512935678471442,1.1202874408283408 L453.90619241344655,575.1368204397091 zM447.1301796387923,548.2188027642504 c4.918830679439456,-0.910233545673027 7.42730634250138,-3.247277623623259 7.42730634250138,-7.1060454753653195 c0,-5.6901266265406125 -3.993083708547554,-9.036985356015276 -10.861528976455206,-9.036985356015276 c-8.634616908226763,0 -13.829323029068718,6.398086050952966 -14.106620508828966,19.39497631934064 L447.1301796387923,548.2188027642504 z" id="svg_28" stroke-width="60" stroke="none"/>
			<path fill="#006B79" d="M476.5535752988911,534.1031810098134 c0.2815635948334828,0.9149014100098122 0.8361585543539792,0.9149014100098122 1.3950196289477033,0.10113706063033658 c3.5266551272072415,-5.484740595722083 8.445485806646698,-8.223221006635802 14.850346569929524,-8.223221006635802 c10.210235408608064,0 16.431653223741804,7.512149672665594 16.431653223741804,19.70149941078951 v29.04656381303257 c0,0.6068223637820185 -0.2815635948334828,0.9133454552308836 -0.8404246694272115,0.9133454552308836 h-4.3585475664879825 c-0.5588610745937291,0 -0.8361585543539792,-0.3065230914488662 -0.8361585543539792,-0.9133454552308836 v-28.536210645544106 c0,-8.840935053870318 -4.081250086727735,-14.117177709216016 -10.953961469708622,-14.117177709216016 c-9.189211867747256,0 -14.568782975096044,7.51370562744452 -14.568782975096044,20.40945883520186 v22.245485474337194 c0,0.6068223637820185 -0.2815635948334828,0.9133454552308836 -0.8361585543539792,0.9133454552308836 h-4.367079796634451 c-0.5545949595204955,0 -0.8318924392807406,-0.3065230914488662 -0.8318924392807406,-0.9133454552308836 v-46.82179120750891 c0,-0.6099342733398763 0.2772974797602478,-0.9149014100098122 0.8318924392807406,-0.9149014100098122 h2.8796276744333333 c0.5588610745937291,0 0.8361585543539792,0.3065230914488662 0.8361585543539792,0.9149014100098122 L476.5535752988911,534.1031810098134 z" id="svg_29" stroke-width="60" stroke="none"/>
		</g>
		<g id="svg_30" stroke-width="60" stroke="none">
			<path fill="#006B79" d="M60.4182245569408,671.1174469326772 c0.5545949595204955,0 0.8318924392807406,0.3034111818910099 0.8318924392807406,0.9149014100098122 v4.2633160942634065 c0,0.6099342733398763 -0.2772974797602478,0.9133454552308836 -0.8318924392807406,0.9133454552308836 H23.381235529476072 c-0.5588610745937291,0 -0.8361585543539792,-0.3034111818910099 -0.8361585543539792,-0.9133454552308836 v-68.0481263016481 c0,-0.6099342733398763 0.2772974797602478,-0.910233545673027 0.8361585543539792,-0.910233545673027 h4.455246174814633 c0.5545949595204955,0 0.8361585543539792,0.30029927233315357 0.8361585543539792,0.910233545673027 v62.86835284259595 H60.4182245569408 z" id="svg_31" stroke-width="60" stroke="none"/>
			<path fill="#006B79" d="M80.00253681980296,676.2956644369506 c0,0.6099342733398763 -0.2772974797602478,0.9133454552308836 -0.8318924392807406,0.9133454552308836 h-4.362813681561216 c-0.5588610745937291,0 -0.8361585543539792,-0.3034111818910099 -0.8361585543539792,-0.9133454552308836 v-41.741598854308165 h-4.270381188307801 c-0.5545949595204955,0 -0.8318924392807406,-0.30807904622779503 -0.8318924392807406,-0.9149014100098122 v-4.1621790336330715 c0,-0.6099342733398763 0.2772974797602478,-0.9149014100098122 0.8318924392807406,-0.9149014100098122 h9.470775462580736 c0.5545949595204955,0 0.8318924392807406,0.3065230914488662 0.8318924392807406,0.9149014100098122 V676.2956644369506 zM80.00253681980296,609.366269621352 c0,2.842729381101912 -1.4831860071278844,4.468702125081937 -3.9888175934743195,4.468702125081937 c-2.505631586346436,0 -4.081250086727735,-1.6259727439800211 -4.081250086727735,-4.468702125081937 c0,-2.839617471544056 1.5756185003813001,-4.468702125081937 4.081250086727735,-4.468702125081937 C78.51935081267511,604.8975674962699 80.00253681980296,606.5250961950288 80.00253681980296,609.366269621352 z" id="svg_32" stroke-width="60" stroke="none"/>
			<path fill="#006B79" d="M130.49911890332277,676.2956644369506 c0,0.6099342733398763 -0.2772974797602478,0.9133454552308836 -0.8361585543539792,0.9133454552308836 h-2.8796276744333333 c-0.5545949595204955,0 -0.8318924392807406,-0.3034111818910099 -0.9243249325341591,-0.9133454552308836 l-0.3739960880868983,-6.0915629595041 c-0.0881663781801814,-0.9180133195676679 -0.64702745277391,-1.1171755312704854 -1.298321020621053,-0.10113706063033658 c-3.3417901407004105,5.07708044364288 -8.166766288528704,8.122083946005466 -14.203319117155615,8.122083946005466 c-11.785853908989363,0 -18.933018695015004,-9.751168599543345 -18.933018695015004,-25.388514127772254 c0,-15.743150453196034 7.515472720681561,-25.19090787084837 20.050740844202462,-25.288933021920847 c3.9888175934743195,0 7.057576369487717,0.6099342733398763 10.579965381621724,2.4350692290227127 l2.8796276744333333,1.4205867131614913 v-25.081991036323387 c0,-0.6114902281188047 0.2772974797602478,-0.9149014100098122 0.8361585543539792,-0.9149014100098122 h4.266115073234566 c0.5588610745937291,0 0.8361585543539792,0.3034111818910099 0.8361585543539792,0.9149014100098122 V676.2956644369506 zM120.7510459609818,635.8766271447314 c-2.7829290661066817,-1.527947592907541 -5.6625567405400155,-2.237462972098824 -9.466509347507502,-2.237462972098824 c-8.911914387987009,0.10424897018819325 -14.291485495335799,7.211850400332439 -14.203319117155615,19.197370062416752 c0.09669860832665068,11.985519662084315 5.112227896092755,19.293839258710303 13.552025549308471,19.293839258710303 c9.285910476073907,0 13.926021637395367,-8.833155279975676 13.926021637395367,-20.30832177457152 v-14.019152558143531 L120.7510459609818,635.8766271447314 z" id="svg_33" stroke-width="60" stroke="none"/>
			<path fill="#006B79" d="M171.99277614395993,676.7033245890298 c-3.249357647446995,1.1171755312704854 -6.498715294893989,1.521723773791829 -10.025370422101231,1.521723773791829 c-12.808299488207911,0 -20.420470817216128,-9.751168599543345 -20.420470817216128,-25.388514127772254 c0,-15.536208467598577 7.704603822261626,-25.288933021920847 20.328038323962705,-25.288933021920847 c10.487532888368309,0 16.801383196755467,5.58432170157349 16.801383196755467,15.030523164446898 c0,7.1060454753653195 -4.085516201800971,11.2744483281141 -12.442835630267485,12.797728056684857 l-18.095438102303284,3.248833578402186 c1.2058885273676374,8.531300052863596 6.217151700060507,13.50568748109721 13.829323029068718,13.50568748109721 c3.156925154193579,0 6.0365528286269114,-0.4045482425213461 8.634616908226763,-1.3178936977522278 l2.7829290661066817,-0.9149014100098122 c0.5588610745937291,-0.10113706063033658 0.9285910476073916,0.10113706063033658 1.113456034114222,0.7110713339702116 l1.113456034114222,4.061041973002734 c0.0924324932534161,0.6114902281188047 -0.0924324932534161,1.0160384706401502 -0.64702745277391,1.1171755312704854 L171.99277614395993,676.7033245890298 zM165.21249725423243,649.78686286835 c4.9273629095859235,-0.910233545673027 7.4315724575746165,-3.248833578402186 7.4315724575746165,-7.107601430144245 c0,-5.687014716982756 -3.993083708547554,-9.040097265573133 -10.861528976455206,-9.040097265573133 c-8.634616908226763,0 -13.829323029068718,6.399642005731894 -14.110886623902198,19.39964418367742 L165.21249725423243,649.78686286835 z" id="svg_34" stroke-width="60" stroke="none"/>
			<path fill="#006B79" d="M212.18669032561826,632.7258187174015 c0,0.6099342733398763 -0.2772974797602478,0.9133454552308836 -0.8361585543539792,0.9133454552308836 c-9.932937928847815,0.5056853031516826 -15.591228554314595,9.650031538913007 -15.591228554314595,26.813768705270533 v15.842731559047445 c0,0.6099342733398763 -0.2815635948334828,0.9133454552308836 -0.8404246694272115,0.9133454552308836 h-4.362813681561216 c-0.5545949595204955,0 -0.8318924392807406,-0.3034111818910099 -0.8318924392807406,-0.9133454552308836 v-46.81867929795104 c0,-0.6099342733398763 0.2772974797602478,-0.9149014100098122 0.8318924392807406,-0.9149014100098122 h2.8838937895065673 c0.5545949595204955,0 0.8318924392807406,0.3065230914488662 0.9243249325341591,0.9149014100098122 l0.6512935678471442,7.616398642853785 c0.18486498650683175,0.8122083946005456 0.7437260611005596,1.0160384706401502 1.2058885273676374,0.20694198559745747 c3.5266551272072415,-6.096230823840885 8.074333795275288,-9.447757417652333 15.127644049689772,-9.752724554322272 c0.5588610745937291,0 0.8361585543539792,0.3065230914488662 0.8361585543539792,0.9133454552308836 V632.7258187174015 z" id="svg_35" stroke-width="60" stroke="none"/>
			<path fill="#006B79" d="M226.01601335468698,629.0724368964782 c2.6947626879265005,-0.9149014100098122 6.0365528286269114,-1.5248356833496857 9.932937928847815,-1.5248356833496857 c11.323691442722284,0 18.37842373549451,7.412568566814183 18.37842373549451,19.70149941078951 v29.048119767811507 c0,0.6099342733398763 -0.2772974797602478,0.9133454552308836 -0.8318924392807406,0.9133454552308836 h-2.8796276744333333 c-0.5588610745937291,0 -0.8361585543539792,-0.3034111818910099 -0.9285910476073916,-0.9133454552308836 l-0.2772974797602478,-4.56983918571227 c-0.2815635948334828,-1.3194496525311592 -0.9285910476073916,-1.218312591900819 -1.8586041335725279,-0.10113706063033658 c-3.156925154193579,4.369121019230525 -7.889468808768458,6.600360172213636 -14.75791407667611,6.600360172213636 c-9.37407685425409,0 -14.850346569929524,-5.585877656352418 -14.850346569929524,-14.621307057588771 c0,-8.840935053870318 5.6625567405400155,-14.828249043186224 16.334954615415153,-14.932498013374417 h14.018454130648784 v-1.3194496525311592 c0,-8.635549023051789 -4.455246174814633,-13.609936451285405 -12.43856951519425,-13.609936451285405 c-3.249357647446995,0 -6.128985321880328,0.4029922877424183 -8.444063768288952,1.2167566371218927 l-3.249357647446995,1.0160384706401502 c-0.5588610745937291,0.20538603081853005 -0.9285910476073916,0 -1.1177221491874567,-0.6099342733398763 l-1.0167574257875736,-3.9630168219302533 c-0.18486498650683175,-0.6052664090030905 0,-1.0144825158612192 0.5588610745937291,-1.218312591900819 L226.01601335468698,629.0724368964782 zM234.27521213646912,654.3582580088412 c-7.053310254414483,0 -10.30266790186148,3.5553566698510517 -10.30266790186148,8.834711234754607 c0,5.683902807424897 3.3417901407004105,9.040097265573133 9.285910476073907,9.040097265573133 c9.55894184076092,0 15.035211556436357,-5.990425898873763 15.035211556436357,-16.552246938238728 v-1.322561562089013 H234.27521213646912 z" id="svg_36" stroke-width="60" stroke="none"/>
			<path fill="#006B79" d="M298.6949717806688,629.4769851389995 c0.2815635948334828,0.5056853031516826 0.1891311015800661,0.9133454552308836 -0.0924324932534161,1.322561562089013 c-1.3864873988012325,1.828246865240694 -2.59806407959985,3.6533818209235314 -3.896385100220904,5.990425898873763 l-17.91483923086969,29.654942131593515 c-0.7394599460273232,1.1171755312704854 -1.6680509936347168,2.4350692290227127 -2.690496572853266,3.85876785174206 c-0.46642858134031473,0.6146021376766617 -0.2772974797602478,1.1171755312704854 0.462162466267079,1.0191503801980055 c1.581306653812279,-0.10424897018819325 3.064492660940164,-0.10424897018819325 4.362813681561216,-0.10424897018819325 h18.46943419039018 c0.6512935678471442,0 0.9285910476073916,0.40766015207920275 0.7437260611005596,1.0160384706401502 l-1.113456034114222,4.165290943190926 c-0.0924324932534161,0.6068223637820185 -0.462162466267079,0.8090964850426915 -0.9285910476073916,0.8090964850426915 h-30.071845151230452 c-0.462162466267079,0 -0.7437260611005596,-0.20227412126067268 -1.0252896559340428,-0.6099342733398763 l-0.1805988714335967,-0.3034111818910099 c-0.2772974797602478,-0.5087972127095391 -0.1891311015800661,-0.9149014100098122 0.0924324932534161,-1.3194496525311592 c1.4831860071278844,-2.0305209865013683 2.875361559360098,-4.1621790336330715 4.177948695054385,-6.600360172213636 l17.63327563603621,-28.945426752402238 c0.7437260611005596,-1.2214245014586764 1.6680509936347168,-2.7431482752505065 2.690496572853266,-3.959904912372398 c0.46642858134031473,-0.6099342733398763 0.3739960880868983,-1.1202874408283408 -0.36972997301366334,-1.0160384706401502 c-1.6694730319924602,0.10113706063033658 -3.152659039120345,0.10113706063033658 -4.455246174814633,0.10113706063033658 h-18.095438102303284 c-0.5631271896669634,0 -0.8404246694272115,-0.30807904622779503 -0.8404246694272115,-0.9149014100098122 v-4.1621790336330715 c0,-0.6099342733398763 0.2772974797602478,-0.9149014100098122 0.8404246694272115,-0.9149014100098122 h30.996170083764614 c0.46642858134031473,0 0.7437260611005596,0.20227412126067268 1.0252896559340428,0.6068223637820185 L298.6949717806688,629.4769851389995 z" id="svg_37" stroke-width="60" stroke="none"/>
			<path fill="#006B79" d="M315.6897521940776,692.2410890114072 c1.8529159801415473,0.6099342733398763 5.939854220300261,1.218312591900819 9.18494575267402,1.218312591900819 c9.008612996313659,0 14.480616596915862,-4.468702125081937 15.133332203120752,-13.910235723618555 c0.18486498650683175,-7.924477689081579 0.18486498650683175,-5.893956702580212 0.36972997301366334,-9.346620357022001 c0.09669860832665068,-0.8122083946005456 -0.5545949595204955,-1.1171755312704854 -1.113456034114222,-0.20538603081853005 c-3.060226545866929,4.670976246342607 -7.797036315515043,8.226332916193659 -14.388184103662448,8.226332916193659 c-11.693421415735948,0 -18.933018695015004,-9.751168599543345 -18.933018695015004,-25.288933021920847 c0,-15.842731559047445 7.607905213934975,-25.388514127772254 20.60533580372296,-25.388514127772254 c4.081250086727735,0 8.166766288528704,1.0144825158612192 11.60098892248253,2.6373433502833867 l6.683580281400821,3.2519454879600422 c0.46642858134031473,0.20227412126067268 0.64702745277391,0.5087972127095391 0.64702745277391,1.0160384706401502 v44.282473008298 c0,13.200720344427271 -7.049044139341248,20.919812002690325 -20.420470817216128,20.919812002690325 c-3.6190876204606575,0 -8.070067680202055,-0.7110713339702116 -10.579965381621724,-1.5248356833496857 l-4.081250086727735,-1.2167566371218927 c-0.5588610745937291,-0.20538603081853005 -0.7437260611005596,-0.6146021376766617 -0.5588610745937291,-1.2214245014586764 l1.2058885273676374,-4.061041973002734 c0.18486498650683175,-0.5056853031516826 0.5545949595204955,-0.7110713339702116 1.021023540860805,-0.5056853031516826 L315.6897521940776,692.2410890114072 zM335.6395283148801,635.8766271447314 c-2.3165004847663697,-1.322561562089013 -5.750723118720196,-2.237462972098824 -9.281644361000673,-2.237462972098824 c-9.096779374493842,0.10424897018819325 -14.383917988589213,7.009576279071766 -14.383917988589213,19.197370062416752 c0,11.372473479186581 4.733965692932624,19.293839258710303 13.459593056055056,19.293839258710303 c9.281644361000673,0 14.014188015575549,-8.526632188526815 14.014188015575549,-20.41257074475971 v-13.914903587955338 L335.6395283148801,635.8766271447314 z" id="svg_38" stroke-width="60" stroke="none"/>
			<path fill="#006B79" d="M396.53547690858807,652.8365342350492 c0,15.637345528228916 -7.704603822261626,25.388514127772254 -20.235605830709293,25.388514127772254 c-12.531002008447665,0 -20.231339715636057,-9.751168599543345 -20.231339715636057,-25.388514127772254 c0,-15.536208467598577 7.7003377071883925,-25.288933021920847 20.231339715636057,-25.288933021920847 C388.8308730863265,627.5476012131284 396.53547690858807,637.3003257674507 396.53547690858807,652.8365342350492 zM362.09655196072316,652.8365342350492 c0,12.081988858377862 5.2928267675263525,19.293839258710303 14.203319117155615,19.293839258710303 c8.911914387987009,0 14.295751610409031,-7.211850400332439 14.295751610409031,-19.293839258710303 c0,-11.985519662084315 -5.385259260779768,-19.197370062416752 -14.295751610409031,-19.197370062416752 C367.3879566898918,633.6391641726325 362.09655196072316,640.8510145729649 362.09655196072316,652.8365342350492 z" id="svg_39" stroke-width="60" stroke="none"/>
			<path fill="#006B79" d="M438.6761616019991,697.9312156379477 c-0.18486498650683175,0.5056853031516826 -0.462162466267079,0.7110713339702116 -0.9243249325341591,0.7110713339702116 h-4.553366821499027 c-0.64702745277391,0 -0.9243249325341591,-0.40921610685813076 -0.64702745277391,-1.1171755312704854 l6.4062828016405735,-15.74159449841711 c1.9467705117527074,-5.0801923532007365 1.113456034114222,-10.564932948922818 -1.298321020621053,-16.863437894024376 l-14.388184103662448,-35.24081978794594 c-0.2815635948334828,-0.7110713339702116 0,-1.1171755312704854 0.6512935678471442,-1.1171755312704854 h4.635845046248229 c0.46642858134031473,0 0.7437260611005596,0.20227412126067268 0.9285910476073916,0.7110713339702116 l11.046393962962037,26.71107568986127 c1.5770405387390447,4.06415388256059 2.875361559360098,8.433274901791115 3.434222633953826,11.174867222262693 c0.18486498650683175,0.9133454552308836 0.9285910476073916,0.9133454552308836 1.2058885273676374,0 c0.64702745277391,-2.741592320471577 2.320766599839609,-7.619510552411642 3.715786228787308,-11.174867222262693 l10.857262861381974,-26.71107568986127 c0.18486498650683175,-0.5087972127095391 0.462162466267079,-0.7110713339702116 0.9285910476073916,-0.7110713339702116 h4.732543654574879 c0.5545949595204955,0 0.8361585543539792,0.40766015207920275 0.5545949595204955,1.1171755312704854 L438.6761616019991,697.9312156379477 z" id="svg_40" stroke-width="60" stroke="none"/>
		</g>
		<g id="svg_41" stroke-width="60" stroke="none">
			<path fill="#006B79" d="M-29.06211706579647,744.247321542305 c0.56170515130922,0 0.8361585543539792,0.3065230914488662 0.8361585543539792,0.910233545673027 v28.134774312580618 c0,0.6114902281188047 -0.18770906322232167,0.9149014100098122 -0.6498715294894013,1.0191503801980055 l-1.5798846154545347,0.6068223637820185 l-5.939854220300261,2.3370440779502335 c-5.009841134335127,1.9278279710921022 -7.889468808768458,2.5393181992109057 -13.270461954474992,2.5393181992109057 c-16.893815690008882,0 -27.011618605363534,-13.711073511915737 -27.011618605363534,-35.950335167137226 c0,-22.145904368485787 10.117802915354646,-36.056140092104336 27.011618605363534,-36.056140092104336 c5.196128159199701,0 8.353053313393282,0.7126272887491396 13.364316486086153,2.6404552598412403 l3.896385100220904,1.521723773791829 c0.4650065429825698,0.20694198559745747 0.6498715294894013,0.6114902281188047 0.4650065429825698,1.1202874408283408 l-1.3907535138744689,4.2633160942634065 c-0.18486498650683175,0.5087972127095391 -0.5574390362359842,0.7110713339702116 -1.021023540860805,0.5087972127095391 l-3.8992291769363936,-1.521723773791829 c-3.9916616701898096,-1.527947592907541 -6.868445267907652,-2.1347699566895595 -11.414701897617954,-2.1347699566895595 c-13.091285121399139,0 -20.704878488765093,11.0706182520745 -20.704878488765093,29.659609995930307 c0,18.58432387951902 7.612171329008211,29.654942131593515 20.704878488765093,29.654942131593515 c4.450980059741398,-0.10113706063033658 7.326341619101495,-0.5087972127095391 11.231258949468867,-2.035188850838152 l4.176526656696641,-1.6213048796432368 v-19.50078124430776 h-12.627700616774316 c-0.64702745277391,0 -0.9271690092496465,-0.4045482425213461 -0.7423040227428146,-1.0144825158612192 l1.113456034114222,-4.2633160942634065 c0.095276569968906,-0.6114902281188047 0.4650065429825698,-0.8137643493794768 0.9285910476073916,-0.8137643493794768 H-29.06211706579647 z" id="svg_42" stroke-width="60" stroke="none"/>
			<path fill="#006B79" d="M12.895124679465475,778.2682727835712 c-3.249357647446995,1.1202874408283408 -6.498715294893989,1.5248356833496857 -10.022526345385742,1.5248356833496857 c-12.809721526565657,0 -20.420470817216128,-9.751168599543345 -20.420470817216128,-25.388514127772254 c0,-15.540876331935364 7.7003377071883925,-25.29048897669978 20.326616285604963,-25.29048897669978 c10.487532888368309,0 16.798539120039976,5.58432170157349 16.798539120039976,15.02896720966797 c0,7.109157384923176 -4.079828048369991,11.277560237671958 -12.435725438478762,12.800839966242714 l-18.09970421737652,3.247277623623259 c1.2058885273676374,8.531300052863596 6.218573738418253,13.508799390655069 13.832167105784206,13.508799390655069 c3.154081077478089,0 6.033708751911423,-0.40766015207920275 8.631772831511272,-1.3194496525311592 l2.7829290661066817,-0.9180133195676679 c0.5588610745937291,-0.09646919629355188 0.9285910476073916,0.10424897018819325 1.113456034114222,0.7157391983069955 l1.113456034114222,4.061041973002734 c0.0924324932534161,0.6114902281188047 -0.0924324932534161,1.0160384706401502 -0.6498715294894013,1.1171755312704854 L12.895124679465475,778.2682727835712 zM6.11911190481127,751.3549229724491 c4.91740864108171,-0.9133454552308836 7.423040227428144,-3.248833578402186 7.423040227428144,-7.107601430144245 c0,-5.687014716982756 -3.9873955551165747,-9.038541310794205 -10.857262861381974,-9.038541310794205 c-8.628928754795782,0 -13.832167105784206,6.39497414139511 -14.109464585544456,19.398088228898494 L6.11911190481127,751.3549229724491 z" id="svg_43" stroke-width="60" stroke="none"/>
			<path fill="#006B79" d="M53.090460899481585,734.2907669119433 c0,0.6114902281188047 -0.27445340304475746,0.9180133195676679 -0.8361585543539792,0.9180133195676679 c-9.930093852132325,0.5041293483727545 -15.591228554314595,9.645363674576224 -15.591228554314595,26.812212750491604 v15.842731559047445 c0,0.6099342733398763 -0.2815635948334828,0.9133454552308836 -0.8361585543539792,0.9133454552308836 h-4.362813681561216 c-0.5545949595204955,0 -0.8347365159962331,-0.3034111818910099 -0.8347365159962331,-0.9133454552308836 v-46.82179120750891 c0,-0.6099342733398763 0.28014155647573663,-0.9133454552308836 0.8347365159962331,-0.9133454552308836 h2.8796276744333333 c0.5545949595204955,0 0.8347365159962331,0.3034111818910099 0.9285910476073916,0.9133454552308836 l0.6498715294894013,7.616398642853785 c0.18344294814908663,0.8168762589373322 0.7423040227428146,1.0191503801980055 1.2044664890098926,0.20538603081853005 c3.5266551272072415,-6.0915629595041 8.077177871990779,-9.447757417652333 15.127644049689772,-9.748056689985487 c0.56170515130922,0 0.8361585543539792,0.30185522711208135 0.8361585543539792,0.910233545673027 V734.2907669119433 z" id="svg_44" stroke-width="60" stroke="none"/>
			<path fill="#006B79" d="M90.86690987297364,778.2682727835712 c-3.2465135707315045,1.1202874408283408 -6.494449179820756,1.5248356833496857 -10.025370422101231,1.5248356833496857 c-12.808299488207911,0 -20.41904877885838,-9.751168599543345 -20.41904877885838,-25.388514127772254 c0,-15.540876331935364 7.707447898977116,-25.29048897669978 20.3308824006782,-25.29048897669978 c10.487532888368309,0 16.79996115839772,5.58432170157349 16.79996115839772,15.02896720966797 c0,7.109157384923176 -4.0883602785164594,11.277560237671958 -12.439991553551994,12.800839966242714 l-18.09970421737652,3.247277623623259 c1.2101546424408733,8.531300052863596 6.218573738418253,13.508799390655069 13.829323029068718,13.508799390655069 c3.1583471925513242,0 6.0365528286269114,-0.40766015207920275 8.634616908226763,-1.3194496525311592 l2.7871951811799143,-0.9180133195676679 c0.5545949595204955,-0.09646919629355188 0.9271690092496465,0.10424897018819325 1.1120339957564769,0.7157391983069955 l1.113456034114222,4.061041973002734 c0.095276569968906,0.6114902281188047 -0.095276569968906,1.0160384706401502 -0.6498715294894013,1.1171755312704854 L90.86690987297364,778.2682727835712 zM84.09231913667716,751.3549229724491 c4.9202527177972,-0.9133454552308836 7.425884304143636,-3.248833578402186 7.425884304143636,-7.107601430144245 c0,-5.687014716982756 -3.993083708547554,-9.038541310794205 -10.860106938097463,-9.038541310794205 c-8.631772831511272,0 -13.829323029068718,6.39497414139511 -14.109464585544456,19.398088228898494 L84.09231913667716,751.3549229724491 z" id="svg_45" stroke-width="60" stroke="none"/>
			<path fill="#006B79" d="M113.51998091184922,737.2377452632331 c0.27445340304475746,0.9149014100098122 0.8347365159962331,0.9149014100098122 1.3907535138744689,0.10424897018819325 c3.5266551272072415,-5.487852505279938 8.446907845004445,-8.226332916193659 14.853190646645015,-8.226332916193659 c10.210235408608064,0 16.42738710866857,7.515261582223449 16.42738710866857,19.70149941078951 v29.048119767811507 c0,0.6099342733398763 -0.27445340304475746,0.9133454552308836 -0.8361585543539792,0.9133454552308836 h-4.3585475664879825 c-0.5588610745937291,0 -0.8390026310694647,-0.3034111818910099 -0.8390026310694647,-0.9133454552308836 v-28.53932255510197 c0,-8.837823144312459 -4.081250086727735,-14.115621754437086 -10.953961469708622,-14.115621754437086 c-9.186367791031765,0 -14.568782975096044,7.51370562744452 -14.568782975096044,20.40945883520186 v22.245485474337194 c0,0.6099342733398763 -0.28014155647573663,0.9133454552308836 -0.8390026310694647,0.9133454552308836 h-4.361391643203472 c-0.5545949595204955,0 -0.8347365159962331,-0.3034111818910099 -0.8347365159962331,-0.9133454552308836 v-46.82179120750891 c0,-0.6099342733398763 0.28014155647573663,-0.9133454552308836 0.8347365159962331,-0.9133454552308836 h2.8796276744333333 c0.5574390362359842,0 0.8318924392807406,0.3034111818910099 0.8318924392807406,0.9133454552308836 L113.51998091184922,737.2377452632331 z" id="svg_46" stroke-width="60" stroke="none"/>
			<path fill="#006B79" d="M186.9426653989316,778.1686916777198 c-2.972060167686748,1.0113706063033645 -6.0322867135536775,1.6228608344221649 -9.189211867747256,1.6228608344221649 c-13.552025549308471,0 -20.975065776736617,-9.751168599543345 -20.975065776736617,-25.388514127772254 c0,-15.540876331935364 7.329185695816984,-25.29048897669978 21.067498269990033,-25.29048897669978 c2.8796276744333333,0 5.570124247286599,0.5056853031516826 8.634616908226763,1.5248356833496857 l2.8767835977178424,0.9133454552308836 c0.5545949595204955,0.09958110585140838 0.7423040227428146,0.5087972127095391 0.5545949595204955,1.1156195764915564 l-1.2044664890098926,4.061041973002734 c-0.18486498650683175,0.5087972127095391 -0.5574390362359842,0.7126272887491396 -1.021023540860805,0.6114902281188047 l-2.5994861179575954,-0.8137643493794768 c-2.690496572853266,-1.0160384706401502 -5.105117704304032,-1.3178936977522278 -7.145742747667899,-1.3178936977522278 c-10.207391331892572,0 -15.134754241478497,7.311431506183849 -15.134754241478497,19.195814107637826 c0,12.081988858377862 5.1079617810195215,19.293839258710303 14.94846721661392,19.293839258710303 c2.320766599839609,0 5.1079617810195215,-0.5087972127095391 7.889468808768458,-1.4236986227193502 l2.59806407959985,-0.8137643493794768 c0.5588610745937291,-0.1991622117028165 0.9314351243228808,0 1.1163001108297126,0.6146021376766617 l1.1163001108297126,3.959904912372398 c0.1805988714335967,0.6099342733398763 0,1.0144825158612192 -0.56170515130922,1.218312591900819 L186.9426653989316,778.1686916777198 z" id="svg_47" stroke-width="60" stroke="none"/>
			<path fill="#006B79" d="M210.3366184221922,777.8637245410499 c0,0.6099342733398763 -0.28014155647573663,0.9133454552308836 -0.8347365159962331,0.9133454552308836 h-4.362813681561216 c-0.5574390362359842,0 -0.8361585543539792,-0.3034111818910099 -0.8361585543539792,-0.9133454552308836 v-41.741598854308165 h-4.268959149950056 c-0.5588610745937291,0 -0.8347365159962331,-0.30807904622779503 -0.8347365159962331,-0.9133454552308836 v-4.166846897969857 c0,-0.6099342733398763 0.27445340304475746,-0.9133454552308836 0.8347365159962331,-0.9133454552308836 h9.467931385865247 c0.5545949595204955,0 0.8347365159962331,0.3034111818910099 0.8347365159962331,0.9133454552308836 V777.8637245410499 zM210.3366184221922,710.9312178158934 c0,2.844285335880841 -1.4831860071278844,4.473369989418719 -3.993083708547554,4.473369989418719 c-2.5027875096309464,0 -4.081250086727735,-1.629084653537878 -4.081250086727735,-4.473369989418719 c0,-2.839617471544056 1.5784625770967895,-4.470258079860864 4.081250086727735,-4.470258079860864 C208.85343241506433,706.4609597360326 210.3366184221922,708.0916003443493 210.3366184221922,710.9312178158934 z" id="svg_48" stroke-width="60" stroke="none"/>
			<path fill="#006B79" d="M228.9966057525202,730.6389410457983 c2.687652496137777,-0.9149014100098122 6.029442636838187,-1.5248356833496857 9.931515890490072,-1.5248356833496857 c11.319425327649048,0 18.37842373549451,7.412568566814183 18.37842373549451,19.70149941078951 v29.048119767811507 c0,0.6099342733398763 -0.2772974797602478,0.9133454552308836 -0.8361585543539792,0.9133454552308836 h-2.875361559360098 c-0.5574390362359842,0 -0.8361585543539792,-0.3034111818910099 -0.9285910476073916,-0.9133454552308836 l-0.28014155647573663,-4.571395140491199 c-0.2772974797602478,-1.3194496525311592 -0.9271690092496465,-1.2167566371218927 -1.8586041335725279,-0.10113706063033658 c-3.154081077478089,4.372232928788383 -7.888046770410712,6.601916126992563 -14.75791407667611,6.601916126992563 c-9.371232777538598,0 -14.853190646645015,-5.585877656352418 -14.853190646645015,-14.622863012367695 c0,-8.840935053870318 5.6668228556132485,-14.831360952744081 16.33922073048839,-14.934053968153348 h14.01703209229104 v-1.3147817881943713 c0,-8.632437113493934 -4.453824136456888,-13.606824541727546 -12.435725438478762,-13.606824541727546 c-3.2522017241624845,0 -6.128985321880328,0.3998803781845616 -8.449751921719932,1.213644727564035 l-3.249357647446995,1.0160384706401502 c-0.5545949595204955,0.20227412126067268 -0.9285910476073916,0 -1.1120339957564769,-0.6114902281188047 l-1.021023540860805,-3.959904912372398 c-0.18770906322232167,-0.6099342733398763 0,-1.0144825158612192 0.5574390362359842,-1.218312591900819 L228.9966057525202,730.6389410457983 zM237.25438249594458,755.9263181129404 c-7.053310254414483,0 -10.299823825145987,3.5553566698510517 -10.299823825145987,8.834711234754607 c0,5.685458762203825 3.3417901407004105,9.040097265573133 9.281644361000673,9.040097265573133 c9.560363879118663,0 15.035211556436357,-5.99353780843162 15.035211556436357,-16.55535884779658 v-1.3194496525311592 H237.25438249594458 z" id="svg_49" stroke-width="60" stroke="none"/>
			<path fill="#006B79" d="M313.4614180874913,708.902252784171 c13.364316486086153,0 21.164196878316684,7.818672764114458 21.164196878316684,21.02406097287852 c0,14.216758815067418 -8.911914387987009,21.93896238288833 -26.36316911423188,21.93896238288833 h-11.973562972211683 v25.998448401112135 c0,0.6099342733398763 -0.28014155647573663,0.9133454552308836 -0.8361585543539792,0.9133454552308836 h-4.453824136456888 c-0.5574390362359842,0 -0.8347365159962331,-0.3034111818910099 -0.8347365159962331,-0.9133454552308836 v-68.0481263016481 c0,-0.6099342733398763 0.2772974797602478,-0.9133454552308836 0.8347365159962331,-0.9133454552308836 H313.4614180874913 zM296.2903049177222,745.7721572256548 h11.973562972211683 c13.459593056055056,0 20.050740844202462,-5.588989565910272 20.050740844202462,-15.84428751382637 c0,-9.44464550809448 -5.570124247286599,-14.929386103816562 -14.853190646645015,-14.929386103816562 h-17.171113169769125 V745.7721572256548 z" id="svg_50" stroke-width="60" stroke="none"/>
			<path fill="#006B79" d="M382.52555500808575,754.4045943391487 c0,15.637345528228916 -7.704603822261626,25.388514127772254 -20.235605830709293,25.388514127772254 c-12.531002008447665,0 -20.235605830709293,-9.751168599543345 -20.235605830709293,-25.388514127772254 c0,-15.540876331935364 7.704603822261626,-25.29048897669978 20.235605830709293,-25.29048897669978 C374.82095118582413,729.1141053624489 382.52555500808575,738.8637180072134 382.52555500808575,754.4045943391487 zM348.08805209857854,754.4045943391487 c0,12.081988858377862 5.288560652453118,19.293839258710303 14.20189707879787,19.293839258710303 c8.911914387987009,0 14.294329572051288,-7.211850400332439 14.294329572051288,-19.293839258710303 c0,-11.985519662084315 -5.3824151840642775,-19.195814107637826 -14.294329572051288,-19.195814107637826 C353.3766127510317,735.2087802315108 348.08805209857854,742.4190746770643 348.08805209857854,754.4045943391487 z" id="svg_51" stroke-width="60" stroke="none"/>
			<path fill="#006B79" d="M399.69666817785486,770.0419398673777 c0,2.2327951077620396 0.8390026310694647,3.6564937304813876 2.414621131450765,3.6564937304813876 c0.2772974797602478,0 0.5574390362359842,0 0.8347365159962331,-0.09802515107248025 c0.4650065429825698,-0.20538603081853005 0.8361585543539792,0 1.021023540860805,0.5041293483727545 l1.5770405387390447,3.9630168219302533 c0.18770906322232167,0.5087972127095391 0,1.0144825158612192 -0.46074042790933445,1.218312591900819 c-0.9285910476073916,0.3065230914488662 -1.9510366268259416,0.5087972127095391 -2.972060167686748,0.5087972127095391 c-5.289982690810862,0 -8.449751921719932,-3.5553566698510517 -8.449751921719932,-9.751168599543345 v-62.15261364428895 c0,-0.6146021376766617 0.2772974797602478,-0.9180133195676679 0.8361585543539792,-0.9180133195676679 h4.362813681561216 c0.5588610745937291,0 0.8347365159962331,0.3034111818910099 0.8347365159962331,0.9180133195676679 V770.0419398673777 z" id="svg_52" stroke-width="60" stroke="none"/>
			<path fill="#006B79" d="M418.2642230149295,778.7770699962809 c-0.5574390362359842,0 -0.8390026310694647,-0.3034111818910099 -0.8390026310694647,-0.9133454552308836 v-41.741598854308165 h-4.268959149950056 c-0.5574390362359842,0 -0.8347365159962331,-0.30807904622779503 -0.8347365159962331,-0.9133454552308836 v-4.166846897969857 c0,-0.6099342733398763 0.2772974797602478,-0.9133454552308836 0.8347365159962331,-0.9133454552308836 h9.470775462580736 c0.5545949595204955,0 0.8304704009229973,0.3034111818910099 0.8304704009229973,0.9133454552308836 v46.82179120750891 c0,0.6099342733398763 -0.27445340304475746,0.9133454552308836 -0.8304704009229973,0.9133454552308836 H418.2642230149295 zM421.6956015721678,719.4625178687571 c-0.18486498650683175,0.5103531674884672 -0.462162466267079,0.7157391983069955 -0.9285910476073916,0.7157391983069955 h-3.432800595596081 c-0.6498715294894013,0 -0.9285910476073916,-0.40921610685813076 -0.6498715294894013,-1.0191503801980055 l3.7115201137140734,-11.475166494595845 c0.18486498650683175,-0.5056853031516826 0.462162466267079,-0.7126272887491396 1.0196015025030614,-0.7126272887491396 h4.736809769648113 c0.6498715294894013,0 0.9271690092496465,0.40766015207920275 0.6498715294894013,1.1202874408283408 L421.6956015721678,719.4625178687571 z" id="svg_53" stroke-width="60" stroke="none"/>
			<path fill="#006B79" d="M456.22838105164385,730.1285878783101 c0.5545949595204955,0 0.8318924392807406,0.3034111818910099 0.8318924392807406,0.9133454552308836 v4.166846897969857 c0,0.6052664090030905 -0.2772974797602478,0.9133454552308836 -0.8318924392807406,0.9133454552308836 h-10.305511978576966 v30.772117662864 c0,4.367565064451598 1.766171640319112,6.804190248253239 4.9202527177972,6.804190248253239 c0.7394599460273232,0 1.5756185003813001,-0.20227412126067268 2.4131990930930196,-0.5087972127095391 c0.462162466267079,-0.20227412126067268 0.8361585543539792,0 1.1163001108297126,0.5087972127095391 l1.5756185003813001,3.76074270066958 c0.18770906322232167,0.5041293483727545 0.09101045489567097,1.0144825158612192 -0.3725740497291529,1.218312591900819 c-1.298321020621053,0.7110713339702116 -3.064492660940164,1.1156195764915564 -4.732543654574879,1.1156195764915564 c-6.868445267907652,0 -10.953961469708622,-4.672532201121534 -10.953961469708622,-12.794616147127005 v-30.874810678273263 h-4.270381188307801 c-0.5545949595204955,0 -0.8318924392807406,-0.30807904622779503 -0.8318924392807406,-0.9133454552308836 v-4.166846897969857 c0,-0.6099342733398763 0.2772974797602478,-0.9133454552308836 0.8318924392807406,-0.9133454552308836 h4.270381188307801 v-12.187793783344983 c0,-0.5087972127095391 0.18770906322232167,-0.9133454552308836 0.6498715294894013,-1.0160384706401502 l4.455246174814633,-1.6228608344221649 c0.5588610745937291,-0.20227412126067268 0.9285910476073916,0.10424897018819325 0.9285910476073916,0.8137643493794768 v14.01448469380675 H456.22838105164385 z" id="svg_54" stroke-width="60" stroke="none"/>
			<path fill="#006B79" d="M476.65027390721775,777.8637245410499 c0,0.6099342733398763 -0.28014155647573663,0.9133454552308836 -0.8361585543539792,0.9133454552308836 h-4.365657758276706 c-0.5545949595204955,0 -0.8347365159962331,-0.3034111818910099 -0.8347365159962331,-0.9133454552308836 v-41.741598854308165 h-4.268959149950056 c-0.5545949595204955,0 -0.8361585543539792,-0.30807904622779503 -0.8361585543539792,-0.9133454552308836 v-4.166846897969857 c0,-0.6099342733398763 0.2815635948334828,-0.9133454552308836 0.8361585543539792,-0.9133454552308836 h9.467931385865247 c0.5574390362359842,0 0.8361585543539792,0.3034111818910099 0.8361585543539792,0.9133454552308836 V777.8637245410499 zM476.65027390721775,710.9312178158934 c0,2.844285335880841 -1.486030083843374,4.473369989418719 -3.993083708547554,4.473369989418719 s-4.084094163443228,-1.629084653537878 -4.084094163443228,-4.473369989418719 c0,-2.839617471544056 1.5756185003813001,-4.470258079860864 4.084094163443228,-4.470258079860864 S476.65027390721775,708.0916003443493 476.65027390721775,710.9312178158934 z" id="svg_55" stroke-width="60" stroke="none"/>
			<path fill="#006B79" d="M517.8623675530214,778.1686916777198 c-2.9677940526135163,1.0113706063033645 -6.033708751911423,1.6228608344221649 -9.186367791031765,1.6228608344221649 c-13.554869626023962,0 -20.97933189180985,-9.751168599543345 -20.97933189180985,-25.388514127772254 c0,-15.540876331935364 7.333451810890219,-25.29048897669978 21.067498269990033,-25.29048897669978 c2.8796276744333333,0 5.570124247286599,0.5056853031516826 8.634616908226763,1.5248356833496857 l2.875361559360098,0.9133454552308836 c0.5588610745937291,0.09958110585140838 0.7437260611005596,0.5087972127095391 0.5588610745937291,1.1156195764915564 l-1.2087326040831305,4.061041973002734 c-0.1820209097913413,0.5087972127095391 -0.5545949595204955,0.7126272887491396 -1.0167574257875736,0.6114902281188047 l-2.602330194673085,-0.8137643493794768 c-2.687652496137777,-1.0160384706401502 -5.105117704304032,-1.3178936977522278 -7.145742747667899,-1.3178936977522278 c-10.211657446965807,0 -15.130488126405261,7.311431506183849 -15.130488126405261,19.195814107637826 c0,12.081988858377862 5.105117704304032,19.293839258710303 14.94846721661392,19.293839258710303 c2.3179225231241185,0 5.103695665946286,-0.5087972127095391 7.888046770410712,-1.4236986227193502 l2.5994861179575954,-0.8137643493794768 c0.5545949595204955,-0.1991622117028165 0.9285910476073916,0 1.1091899190409873,0.6146021376766617 l1.113456034114222,3.959904912372398 c0.1891311015800661,0.6099342733398763 0,1.0144825158612192 -0.5545949595204955,1.218312591900819 L517.8623675530214,778.1686916777198 z" id="svg_56" stroke-width="60" stroke="none"/>
			<path fill="#006B79" d="M536.9859393879742,730.6389410457983 c2.690496572853266,-0.9149014100098122 6.0322867135536775,-1.5248356833496857 9.932937928847815,-1.5248356833496857 c11.322269404364537,0 18.37842373549451,7.412568566814183 18.37842373549451,19.70149941078951 v29.048119767811507 c0,0.6099342733398763 -0.2772974797602478,0.9133454552308836 -0.8390026310694647,0.9133454552308836 h-2.875361559360098 c-0.5574390362359842,0 -0.8318924392807406,-0.3034111818910099 -0.9271690092496465,-0.9133454552308836 l-0.2772974797602478,-4.571395140491199 c-0.28014155647573663,-1.3194496525311592 -0.9285910476073916,-1.2167566371218927 -1.8586041335725279,-0.10113706063033658 c-3.156925154193579,4.372232928788383 -7.889468808768458,6.601916126992563 -14.75791407667611,6.601916126992563 c-9.37407685425409,0 -14.850346569929524,-5.585877656352418 -14.850346569929524,-14.622863012367695 c0,-8.840935053870318 5.6625567405400155,-14.831360952744081 16.334954615415153,-14.934053968153348 h14.014188015575549 v-1.3147817881943713 c0,-8.632437113493934 -4.450980059741398,-13.606824541727546 -12.435725438478762,-13.606824541727546 c-3.2465135707315045,0 -6.1261412451648365,0.3998803781845616 -8.448329883362186,1.213644727564035 l-3.2450915323737597,1.0160384706401502 c-0.5574390362359842,0.20227412126067268 -0.9285910476073916,0 -1.1163001108297126,-0.6114902281188047 l-1.0196015025030614,-3.959904912372398 c-0.18770906322232167,-0.6099342733398763 0,-1.0144825158612192 0.5574390362359842,-1.218312591900819 L536.9859393879742,730.6389410457983 zM545.2451381697563,755.9263181129404 c-7.053310254414483,0 -10.30266790186148,3.5553566698510517 -10.30266790186148,8.834711234754607 c0,5.685458762203825 3.3417901407004105,9.040097265573133 9.283066399358416,9.040097265573133 c9.560363879118663,0 15.033789518078612,-5.99353780843162 15.033789518078612,-16.55535884779658 v-1.3194496525311592 H545.2451381697563 z" id="svg_57" stroke-width="60" stroke="none"/>
		</g>
	</g>
</g></g></svg>